<svg class="tori-scene" xmlns="http://www.w3.org/2000/svg" viewBox="0 0 1200 176" preserveAspectRatio="xMaxYMax slice"><style>.ts-d{animation:ts-drift linear infinite}@keyframes ts-drift{to{transform:translateX(-600px)}}.ts-tw{animation:ts-tw 4s ease-in-out infinite}@keyframes ts-tw{0%,100%{opacity:.2}50%{opacity:1}}.ts-glow{transform-box:fill-box;transform-origin:center;animation:ts-glow 7s ease-in-out infinite}@keyframes ts-glow{0%,100%{opacity:.8;transform:scale(1)}50%{opacity:1;transform:scale(1.07)}}.ts-sh{animation:ts-sh 3.2s ease-in-out infinite}@keyframes ts-sh{0%,100%{opacity:.15}50%{opacity:.85}}.ts-cl{animation:ts-cl linear infinite}@keyframes ts-cl{from{transform:translateX(-280px)}to{transform:translateX(1320px)}}.ts-bob{transform-box:fill-box;transform-origin:50% 100%;animation:ts-bob 5s ease-in-out infinite}@keyframes ts-bob{0%,100%{transform:rotate(-3deg)}50%{transform:rotate(3deg) translateY(1.5px)}}.ts-sway{animation:ts-sway 40s ease-in-out infinite alternate}@keyframes ts-sway{to{transform:translateX(-50px)}}.ts-fl{animation:ts-fl linear infinite}@keyframes ts-fl{from{transform:translate(-120px,14px)}to{transform:translate(1320px,-18px)}}.ts-fp{transform-box:fill-box;transform-origin:center;animation:ts-fp .9s ease-in-out infinite}@keyframes ts-fp{50%{transform:scaleY(.35)}}.ts-mi{animation:ts-mi 30s ease-in-out infinite alternate}@keyframes ts-mi{to{transform:translateX(-90px)}}.ts-bm{transform-box:view-box;transform-origin:1150px 76px;animation:ts-bm 9s ease-in-out infinite}@keyframes ts-bm{0%,100%{transform:scaleX(1);opacity:.55}25%,75%{transform:scaleX(.05);opacity:.1}50%{transform:scaleX(-1);opacity:.55}}.ts-ss{stroke-dasharray:50 300;stroke-dashoffset:350;animation:ts-ss 12s ease-out infinite}@keyframes ts-ss{0%,84%{stroke-dashoffset:350;opacity:0}86%{opacity:1}95%{stroke-dashoffset:0;opacity:0}100%{opacity:0}}@media (prefers-reduced-motion:reduce){.tori-scene,.tori-scene *{animation:none!important}}</style><defs><linearGradient id="night-sky" x1="0" y1="0" x2="0" y2="118" gradientUnits="userSpaceOnUse"><stop offset="0.00" stop-color="#0d0b1d"/><stop offset="0.33" stop-color="#15123a"/><stop offset="0.67" stop-color="#211a50"/><stop offset="1.00" stop-color="#2f2566"/></linearGradient><linearGradient id="night-sea" x1="0" y1="118" x2="0" y2="176" gradientUnits="userSpaceOnUse"><stop offset="0" stop-color="#1e1944"/><stop offset="1" style="stop-color:var(--canvas-default)"/></linearGradient><linearGradient id="night-beam" x1="1" x2="0"><stop offset="0" stop-color="#f6c98a" stop-opacity=".7"/><stop offset="1" stop-color="#f6c98a" stop-opacity="0"/></linearGradient><radialGradient id="night-halo"><stop offset="0" stop-color="#efd3a3" stop-opacity=".55"/><stop offset=".45" stop-color="#efd3a3" stop-opacity=".18"/><stop offset="1" stop-color="#efd3a3" stop-opacity="0"/></radialGradient><mask id="night-mm"><rect width="1200" height="176" fill="#fff"/><circle cx="929" cy="36" r="15" fill="#000"/></mask></defs><rect width="1200" height="119" fill="url(#night-sky)"/><circle class="ts-tw" cx="243" cy="71" r="0.9" fill="#f1e8ff" style="animation-delay:-1.8s;animation-duration:6.0s" opacity="0.2"/><circle class="ts-tw" cx="507" cy="71" r="1.5" fill="#f1e8ff" style="animation-delay:-1.6s;animation-duration:4.2s" opacity="0.2"/><circle class="ts-tw" cx="73" cy="27" r="1.5" fill="#f1e8ff" style="animation-delay:-3.9s;animation-duration:3.5s" opacity="0.2"/><circle class="ts-tw" cx="1111" cy="55" r="0.7" fill="#f1e8ff" style="animation-delay:-0.8s;animation-duration:4.8s" opacity="0.2"/><circle class="ts-tw" cx="205" cy="12" r="0.9" fill="#f1e8ff" style="animation-delay:-2.6s;animation-duration:4.7s" opacity="0.2"/><circle class="ts-tw" cx="577" cy="103" r="0.7" fill="#f1e8ff" style="animation-delay:-1.7s;animation-duration:3.9s" opacity="0.2"/><circle class="ts-tw" cx="5" cy="5" r="1.1" fill="#f1e8ff" style="animation-delay:-0.4s;animation-duration:3.7s" opacity="0.2"/><circle class="ts-tw" cx="1109" cy="82" r="1.4" fill="#f1e8ff" style="animation-delay:-1.7s;animation-duration:5.6s" opacity="0.2"/><circle class="ts-tw" cx="1155" cy="84" r="1.3" fill="#f1e8ff" style="animation-delay:-2.3s;animation-duration:4.0s" opacity="0.2"/><circle class="ts-tw" cx="488" cy="54" r="1.1" fill="#f1e8ff" style="animation-delay:-2.3s;animation-duration:5.2s" opacity="0.2"/><circle class="ts-tw" cx="798" cy="67" r="1.4" fill="#f1e8ff" style="animation-delay:-3.5s;animation-duration:5.5s" opacity="0.2"/><circle class="ts-tw" cx="1186" cy="48" r="1.1" fill="#f1e8ff" style="animation-delay:-3.8s;animation-duration:5.9s" opacity="0.2"/><circle class="ts-tw" cx="429" cy="12" r="1.0" fill="#f1e8ff" style="animation-delay:-3.5s;animation-duration:5.1s" opacity="0.2"/><circle class="ts-tw" cx="886" cy="100" r="1.5" fill="#f1e8ff" style="animation-delay:-0.8s;animation-duration:3.7s" opacity="0.2"/><circle class="ts-tw" cx="958" cy="14" r="1.6" fill="#f1e8ff" style="animation-delay:-3.2s;animation-duration:4.9s" opacity="0.2"/><circle class="ts-tw" cx="854" cy="58" r="1.1" fill="#f1e8ff" style="animation-delay:-3.5s;animation-duration:4.7s" opacity="0.2"/><circle class="ts-tw" cx="1048" cy="31" r="1.4" fill="#f1e8ff" style="animation-delay:-1.7s;animation-duration:4.2s" opacity="0.2"/><circle class="ts-tw" cx="225" cy="63" r="0.9" fill="#f1e8ff" style="animation-delay:-3.6s;animation-duration:5.5s" opacity="0.2"/><circle class="ts-tw" cx="406" cy="72" r="1.6" fill="#f1e8ff" style="animation-delay:-0.5s;animation-duration:3.9s" opacity="0.2"/><circle class="ts-tw" cx="1105" cy="4" r="0.7" fill="#f1e8ff" style="animation-delay:-1.6s;animation-duration:3.1s" opacity="0.2"/><circle class="ts-tw" cx="831" cy="94" r="0.8" fill="#f1e8ff" style="animation-delay:-0.8s;animation-duration:5.8s" opacity="0.2"/><circle class="ts-tw" cx="840" cy="22" r="0.7" fill="#f1e8ff" style="animation-delay:-2.5s;animation-duration:3.0s" opacity="0.2"/><circle class="ts-tw" cx="974" cy="63" r="1.4" fill="#f1e8ff" style="animation-delay:-0.5s;animation-duration:4.0s" opacity="0.2"/><circle class="ts-tw" cx="858" cy="100" r="1.2" fill="#f1e8ff" style="animation-delay:-2.4s;animation-duration:5.3s" opacity="0.2"/><circle class="ts-tw" cx="843" cy="77" r="1.3" fill="#f1e8ff" style="animation-delay:-0.4s;animation-duration:3.1s" opacity="0.2"/><circle class="ts-tw" cx="736" cy="26" r="1.2" fill="#f1e8ff" style="animation-delay:-1.0s;animation-duration:3.7s" opacity="0.2"/><circle class="ts-tw" cx="744" cy="67" r="1.5" fill="#f1e8ff" style="animation-delay:-1.0s;animation-duration:5.7s" opacity="0.2"/><circle class="ts-tw" cx="63" cy="73" r="1.0" fill="#f1e8ff" style="animation-delay:-3.2s;animation-duration:5.0s" opacity="0.2"/><circle class="ts-tw" cx="966" cy="14" r="1.6" fill="#f1e8ff" style="animation-delay:-2.0s;animation-duration:5.5s" opacity="0.2"/><circle class="ts-tw" cx="510" cy="91" r="1.5" fill="#f1e8ff" style="animation-delay:-2.9s;animation-duration:5.7s" opacity="0.2"/><circle class="ts-tw" cx="1030" cy="23" r="1.4" fill="#f1e8ff" style="animation-delay:-0.6s;animation-duration:3.4s" opacity="0.2"/><circle class="ts-tw" cx="1138" cy="99" r="0.7" fill="#f1e8ff" style="animation-delay:-0.3s;animation-duration:3.8s" opacity="0.2"/><circle class="ts-tw" cx="1129" cy="91" r="1.7" fill="#f1e8ff" style="animation-delay:-1.1s;animation-duration:3.6s" opacity="0.2"/><circle class="ts-tw" cx="36" cy="51" r="1.2" fill="#f1e8ff" style="animation-delay:-0.6s;animation-duration:4.0s" opacity="0.2"/><circle class="ts-tw" cx="577" cy="27" r="0.7" fill="#f1e8ff" style="animation-delay:-0.2s;animation-duration:3.3s" opacity="0.2"/><circle class="ts-tw" cx="755" cy="51" r="1.5" fill="#f1e8ff" style="animation-delay:-2.9s;animation-duration:4.5s" opacity="0.2"/><circle class="ts-tw" cx="840" cy="43" r="1.3" fill="#f1e8ff" style="animation-delay:-3.9s;animation-duration:5.3s" opacity="0.2"/><circle class="ts-tw" cx="1154" cy="75" r="1.3" fill="#f1e8ff" style="animation-delay:-3.2s;animation-duration:3.5s" opacity="0.2"/><circle class="ts-tw" cx="79" cy="77" r="1.3" fill="#f1e8ff" style="animation-delay:-1.7s;animation-duration:4.6s" opacity="0.2"/><circle class="ts-tw" cx="464" cy="53" r="0.7" fill="#f1e8ff" style="animation-delay:-0.3s;animation-duration:3.2s" opacity="0.2"/><circle class="ts-tw" cx="425" cy="38" r="0.8" fill="#f1e8ff" style="animation-delay:-2.6s;animation-duration:3.4s" opacity="0.2"/><circle class="ts-tw" cx="63" cy="4" r="1.5" fill="#f1e8ff" style="animation-delay:-3.5s;animation-duration:3.1s" opacity="0.2"/><circle class="ts-tw" cx="922" cy="36" r="1.0" fill="#f1e8ff" style="animation-delay:-3.6s;animation-duration:5.4s" opacity="0.2"/><circle class="ts-tw" cx="14" cy="103" r="0.8" fill="#f1e8ff" style="animation-delay:-2.6s;animation-duration:4.3s" opacity="0.2"/><circle class="ts-tw" cx="40" cy="21" r="1.4" fill="#f1e8ff" style="animation-delay:-3.0s;animation-duration:3.7s" opacity="0.2"/><circle class="ts-tw" cx="1029" cy="85" r="0.9" fill="#f1e8ff" style="animation-delay:-1.8s;animation-duration:3.9s" opacity="0.2"/><line class="ts-ss" x1="820" y1="12" x2="720" y2="44" stroke="#f1e8ff" stroke-width="1.3" stroke-linecap="round"/><circle class="ts-glow" cx="920" cy="42" r="60" fill="url(#night-halo)" opacity=".6"/><circle cx="920" cy="42" r="16" fill="#efd3a3" mask="url(#night-mm)"/><rect y="118" width="1200" height="58" fill="url(#night-sea)"/><rect y="118" width="1200" height="1" fill="#8b7fd6" opacity=".5"/><g class="ts-sway"><g transform="translate(1090 121)"><g class="ts-bob"><path d="M0-3V-38" stroke="#0f0c22" stroke-width="1.4"/><path d="M1.5-5V-36L19-5Z" fill="#6d5aa8" stroke="#c4a7f5" stroke-width=".6"/><path d="M-1.5-5V-30L-15-5Z" fill="#4c3f86" stroke="#c4a7f5" stroke-width=".6"/><path d="M-20-3H20L14 4H-14Z" fill="#0f0c22"/><circle class="ts-tw" cx="8" cy="-1" r="1.6" fill="#f6c98a" style="animation-duration:2.5s"/><circle cx="8" cy="-1" r="6" fill="#f6c98a" opacity=".2"/></g></g></g><g class="ts-d" style="animation-duration:44s"><path d="M0 124 q37.5 -2.5 75 0 t75 0 q37.5 -2.5 75 0 t75 0 q37.5 -2.5 75 0 t75 0 q37.5 -2.5 75 0 t75 0 q37.5 -2.5 75 0 t75 0 q37.5 -2.5 75 0 t75 0 q37.5 -2.5 75 0 t75 0 q37.5 -2.5 75 0 t75 0 q37.5 -2.5 75 0 t75 0 q37.5 -2.5 75 0 t75 0 q37.5 -2.5 75 0 t75 0 q37.5 -2.5 75 0 t75 0 q37.5 -2.5 75 0 t75 0 q37.5 -2.5 75 0 t75 0 q37.5 -2.5 75 0 t75 0 q37.5 -2.5 75 0 t75 0 V176 H0 Z" fill="rgba(140,120,230,.14)"/></g><rect class="ts-sh" x="896" y="123" width="40" height="2" rx="1" fill="#efd3a3" style="animation-delay:-0.00s"/><rect class="ts-sh" x="909" y="129" width="34" height="2" rx="1" fill="#efd3a3" style="animation-delay:-0.45s"/><rect class="ts-sh" x="902" y="135" width="29" height="2" rx="1" fill="#efd3a3" style="animation-delay:-0.90s"/><rect class="ts-sh" x="915" y="141" width="23" height="2" rx="1" fill="#efd3a3" style="animation-delay:-1.35s"/><rect class="ts-sh" x="907" y="147" width="17" height="2" rx="1" fill="#efd3a3" style="animation-delay:-1.80s"/><g class="ts-d" style="animation-duration:30s"><path d="M0 138 q50 -3 100 0 t100 0 q50 -3 100 0 t100 0 q50 -3 100 0 t100 0 q50 -3 100 0 t100 0 q50 -3 100 0 t100 0 q50 -3 100 0 t100 0 q50 -3 100 0 t100 0 q50 -3 100 0 t100 0 q50 -3 100 0 t100 0 q50 -3 100 0 t100 0 q50 -3 100 0 t100 0 q50 -3 100 0 t100 0 V176 H0 Z" fill="rgba(50,40,110,.5)"/></g><g class="ts-d" style="animation-duration:20s"><path d="M0 156 q75 -4 150 0 t150 0 q75 -4 150 0 t150 0 q75 -4 150 0 t150 0 q75 -4 150 0 t150 0 q75 -4 150 0 t150 0 q75 -4 150 0 t150 0 q75 -4 150 0 t150 0 q75 -4 150 0 t150 0 V176 H0 Z" style="fill:var(--canvas-default)"/></g></svg>
